<?xml version="1.0" encoding="UTF-8" standalone="no"?>
<svg width="24" height="24" viewBox="0 0 24 24" fill="none" xmlns="http://www.w3.org/2000/svg">
  <!-- フォルダーの本体 -->
  <path
    d="M2 5C2 4.44772 2.44772 4 3 4H8.5C8.89782 4 9.27936 4.15804 9.56066 4.43934L11.5607 6.43934C11.842 6.72064 12.2235 6.87868 12.6213 6.87868H21C21.5523 6.87868 22 7.32639 22 7.87868V19C22 19.5523 21.5523 20 21 20H3C2.44772 20 2 19.5523 2 19V5Z"
    fill="black"
  />
  <!-- フォルダーの前面部分（影をつける場合） -->
  <path
    d="M2 7H22V19C22 19.5523 21.5523 20 21 20H3C2.44772 20 2 19.5523 2 19V7Z"
    fill="white"
    opacity="0.5"
  />
</svg>
