<?xml version="1.0" encoding="UTF-8" standalone="no"?>
<svg width="24" height="24" viewBox="0 0 24 24" fill="none" xmlns="http://www.w3.org/2000/svg">
  <!-- フォルダーの本体 -->
  <path
    d="M5 7C5 6.44772 5.44772 6 6 6H9.5C9.89782 6 10.2794 6.15804 10.5607 6.43934L12.0607 7.93934C12.342 8.22064 12.7235 8.37868 13.1213 8.37868H19C19.5523 8.37868 20 8.82639 20 9.37868V17C20 17.5523 19.5523 18 19 18H6C5.44772 18 5 17.5523 5 17V7Z"
    fill="rgb(230, 230, 230)"
  />
  <!-- フォルダーの前面部分（影をつける場合） -->
  <path
    d="M5 9H20V17C20 17.5523 19.5523 18 19 18H6C5.44772 18 5 17.5523 5 17V9Z"
    fill="white"
  />
</svg>